Coordinates
version=1
nRows=7
nColumns=63
inDegrees=yes

Units are S.I. units (second, meters, Newtons, ...)
If the header above contains a line with 'inDegrees', this indicates whether rotational values are in degrees (yes) or radians (no).

endheader
time	pelvis_tilt	pelvis_list	pelvis_rotation	pelvis_tx	pelvis_ty	pelvis_tz	hip_flexion_r	hip_adduction_r	hip_rotation_r	knee_angle_r	knee_angle_r_beta	ankle_angle_r	subtalar_angle_r	mtp_angle_r	hip_flexion_l	hip_adduction_l	hip_rotation_l	knee_angle_l	knee_angle_l_beta	ankle_angle_l	subtalar_angle_l	mtp_angle_l	L5_S1_Flex_Ext	L5_S1_Lat_Bending	L5_S1_axial_rotation	L4_L5_Flex_Ext	L4_L5_Lat_Bending	L4_L5_axial_rotation	L3_L4_Flex_Ext	L3_L4_Lat_Bending	L3_L4_axial_rotation	L2_L3_Flex_Ext	L2_L3_Lat_Bending	L2_L3_axial_rotation	L1_L2_Flex_Ext	L1_L2_Lat_Bending	L1_L2_axial_rotation	L1_T12_Flex_Ext	L1_T12_Lat_Bending	L1_T12_axial_rotation	Abs_r3	Abs_r2	Abs_r1	Abs_t1	Abs_t2	neck_flexion	neck_bending	neck_rotation	arm_flex_r	arm_add_r	arm_rot_r	elbow_flex_r	pro_sup_r	wrist_flex_r	wrist_dev_r	arm_flex_l	arm_add_l	arm_rot_l	elbow_flex_l	pro_sup_l	wrist_flex_l	wrist_dev_l
      1.00000000	     -3.74279880	     -5.15001144	     87.94381103	      0.22543882	      0.95413868	      0.53903837	      4.83837209	     -3.82400655	    -11.56478398	      7.19769649	      0.12562350	     21.74614496	     15.83065380	      0.00000000	      7.05974035	      2.78992559	      3.18563630	      6.96772134	      0.12160968	     17.10387105	     -6.17314305	      0.00000000	      0.11583962	     -1.25761868	      0.18631618	      0.21512576	     -1.67263285	      0.19796095	      0.19031291	     -3.05777406	      0.19796095	      0.13239310	     -3.05777406	      0.16302666	      0.10756867	     -2.56453602	      0.15138190	      0.06619076	     -1.94805134	      0.13973714	      0.82743083	    -14.22643406	      1.03623473	      0.00000000	      0.00000000	     20.53885507	      9.83784369	    -33.07098718	     23.23203010	    -19.80117289	      4.99176607	    145.26022973	     82.81743380	    -16.94153828	     26.88124300	     20.05697790	     -7.80000565	    177.65602089	      3.10707331	      9.06158967	     -9.81838722	      2.73634729
      1.01694915	     -3.41576025	     -4.44201475	     87.27788782	      0.22538460	      0.95489977	      0.54069776	      4.31764321	     -3.49189039	    -10.63456733	      7.24365941	      0.12642571	     21.43110527	     15.41566544	      0.00000000	      6.22397741	      2.49522697	      3.23171312	      6.76327247	      0.11804137	     16.70229688	     -7.38280131	      0.00000000	      0.05465861	     -1.21961642	     -0.05040773	      0.10150651	     -1.62208984	     -0.05355821	      0.08979863	     -2.96537537	     -0.05355821	      0.06246933	     -2.96537537	     -0.04410676	      0.05075599	     -2.48704181	     -0.04095628	      0.03123193	     -1.88918584	     -0.03780580	      0.39042099	    -13.79654489	     -0.28035268	      0.00000000	      0.00000000	     20.13982323	     10.39003546	    -31.28504277	     27.07541171	    -20.11881235	      6.79598407	    144.40486932	     82.37084926	    -17.34640865	     28.85192853	     19.54894372	     -8.00951666	    176.84742788	      2.60744004	     10.70228225	     -9.75658387	      3.87067035
      1.03389831	     -3.15485057	     -3.70835221	     86.74234627	      0.22528588	      0.95566572	      0.54261304	      3.79911189	     -3.27968486	    -10.26100356	      7.39020626	      0.12898343	     21.34744719	     15.49530965	      0.00000000	      5.42708513	      2.26840204	      3.13884862	      6.64271302	      0.11593721	     16.45207803	     -8.05475164	      0.00000000	     -0.01971706	     -1.20143173	     -0.25907318	     -0.03661655	     -1.59790421	     -0.27526526	     -0.03239316	     -2.92116112	     -0.27526526	     -0.02253463	     -2.92116112	     -0.22668904	     -0.01830926	     -2.44995959	     -0.21049696	     -0.01126633	     -1.86101776	     -0.19430489	     -0.14083699	    -13.59083607	     -1.44088732	      0.00000000	      0.00000000	     19.64436636	     10.26603469	    -30.63960023	     30.36308663	    -20.60371482	      7.92495744	    143.20048427	     83.38946606	    -16.32544946	     27.98433195	     19.31019762	     -8.20249005	    177.60647380	      2.19897715	     12.31075326	     -9.98933443	      4.39139603
      1.05084746	     -2.90187657	     -3.01889242	     86.47564281	      0.22504085	      0.95622939	      0.54414214	      3.24194096	     -3.07810476	    -10.00076375	      7.49314980	      0.13078014	     21.39589011	     15.49029483	      0.00000000	      4.66040591	      2.09373731	      3.43057898	      6.47943832	      0.11308753	     16.41244332	     -8.95008666	      0.00000000	     -0.07100135	     -1.18213730	     -0.51514088	     -0.13185660	     -1.57224260	     -0.54733718	     -0.11664811	     -2.87424862	     -0.54733718	     -0.08114744	     -2.87424862	     -0.45074827	     -0.06593185	     -2.41061437	     -0.41855196	     -0.04057017	     -1.83113067	     -0.38635566	     -0.50715552	    -13.37257351	     -2.86505901	      0.00000000	      0.00000000	     19.29506841	     10.24136439	    -28.74047559	     33.40948721	    -21.16810637	      8.77925268	    141.84115795	     85.88105405	    -14.47185161	     25.61865596	     18.93940560	     -8.32250602	    179.08424299	      1.65752187	     15.07809669	    -10.30962265	      5.34958977
      1.06779661	     -2.73478094	     -2.41771715	     86.31093587	      0.22473326	      0.95674887	      0.54534606	      2.73047224	     -2.96922590	     -9.88868478	      7.57553507	      0.13221803	     21.54380288	     15.50186383	      0.00000000	      3.98943869	      2.01241301	      3.84118587	      6.30772545	      0.11009058	     16.40525967	     -9.71337832	      0.00000000	     -0.11418914	     -1.18046267	     -0.73336913	     -0.21206065	     -1.57001535	     -0.77920470	     -0.18760133	     -2.87017693	     -0.77920470	     -0.13050676	     -2.87017693	     -0.64169799	     -0.10603603	     -2.40719947	     -0.59586242	     -0.06524767	     -1.82853667	     -0.55002685	     -0.81564159	    -13.35362979	     -4.07877909	      0.00000000	      0.00000000	     19.34976079	      9.87948504	    -27.60492790	     35.91911165	    -21.81673984	      8.69177468	    140.90587547	     87.72771395	    -12.61645948	     22.48770303	     18.70191483	     -8.41234801	    180.68353975	      1.24999663	     18.13763432	    -10.67409310	      6.29373828
      1.08474576	     -2.64510810	     -2.10896313	     86.34796756	      0.22465241	      0.95731100	      0.54578384	      2.41169101	     -2.90371385	    -10.12069468	      7.54380402	      0.13166422	     21.55620023	     15.70339026	      0.00000000	      3.54719211	      2.05600714	      6.06393968	      6.00889051	      0.10487492	     15.60289625	    -12.82001411	      0.00000000	     -0.11098874	     -1.21184319	     -0.88527227	     -0.20611718	     -1.61175144	     -0.94060179	     -0.18234339	     -2.94647554	     -0.94060179	     -0.12684903	     -2.94647554	     -0.77461324	     -0.10306414	     -2.47119064	     -0.71928372	     -0.06341896	     -1.87714510	     -0.66395420	     -0.79278144	    -13.70861255	     -4.92361879	      0.00000000	      0.00000000	     19.56583337	      9.44421667	    -27.83791124	     37.19522812	    -22.60332870	      6.95866847	    140.52706030	     88.30547753	    -10.11224600	     17.93489487	     18.39980163	     -8.46430027	    177.51575769	      1.00141072	     27.26529535	    -10.89832512	      7.68401170
      1.10169492	     -2.57048312	     -1.93223196	     86.16394629	      0.22502056	      0.95764336	      0.54603686	      2.23494907	     -2.81057415	    -10.08576197	      7.48569609	      0.13065004	     21.74401873	     15.75111925	      0.00000000	      3.27818085	      1.98323336	      6.10235707	      5.81825456	      0.10154770	     15.57844080	    -13.08271505	      0.00000000	     -0.09825959	     -1.23980032	     -0.94248244	     -0.18247788	     -1.64893442	     -1.00138759	     -0.16143067	     -3.01445049	     -1.00138759	     -0.11230088	     -3.01445049	     -0.82467213	     -0.09124385	     -2.52820081	     -0.76576698	     -0.05614553	     -1.92045069	     -0.70686183	     -0.70185839	    -14.02486915	     -5.24180458	      0.00000000	      0.00000000	     20.25288505	      8.20976364	    -28.61986019	     38.43265061	    -23.53202983	      4.95065426	    141.00484611	     88.59200627	     -9.87759757	     15.23630061	     18.16812956	     -8.49787958	    177.21700964	      0.83455810	     32.04286070	    -11.65764498	      9.02609855
